<?xml version="1.0" encoding="utf-8" ?><svg xmlns="http://www.w3.org/2000/svg" xmlns:xlink="http://www.w3.org/1999/xlink" width="2282" height="1141" viewBox="0 0 2282 1141"><path fill="white" transform="scale(1.48542 1.48542)" d="M1107.35 292.015C1183.7 284.992 1251.34 341.073 1258.58 417.404C1265.82 493.735 1209.93 561.531 1133.62 568.986C1057 576.471 988.877 520.308 981.609 443.672C974.341 367.035 1030.7 299.067 1107.35 292.015ZM1128.38 491.394C1162.38 486.607 1186.02 455.102 1181.11 421.118C1176.2 387.134 1144.61 363.611 1110.64 368.647C1076.85 373.658 1053.48 405.05 1058.36 438.858C1063.25 472.666 1094.56 496.155 1128.38 491.394Z"/><path fill="white" transform="scale(1.48542 1.48542)" d="M386.356 291.21C389.268 291.108 392.182 291.08 395.096 291.125C413.197 291.399 430.406 298.506 442.846 311.689C486.057 357.479 438.033 432.169 482.035 477.884C502.475 498.985 536.838 499.566 557.531 478.362C572.745 462.773 575.535 447.573 576.778 426.447C579.039 387.993 567.998 341.788 598.698 311.777C616.388 294.485 630.577 291.43 654.334 291.479C655.507 313.766 654.501 346.808 654.508 369.937L654.833 407.404C654.947 456.706 648.863 494.861 612.253 531.256C586.39 556.967 555.521 571.692 518.619 571.578C484.672 571.544 452.161 557.875 428.389 533.64C411.245 516.171 398.773 494.669 392.121 471.113C384.028 441.634 385.68 401.243 385.916 370.444L386.356 291.21Z"/><path fill="white" transform="scale(1.48542 1.48542)" d="M232.279 289.075C247.382 287.444 270.864 292.418 284.615 298.597C320.877 314.892 343.362 336.382 358.351 372.629C349.865 382.745 337.007 392.086 323.9 395.033C279.03 405.121 270.237 356.885 223.103 368.207C207.049 372.121 193.206 382.249 184.616 396.365C175.833 410.926 173.158 428.368 177.173 444.892C184.589 475.635 214.102 498.684 246.131 492.681C269.233 488.351 280.624 466.441 303.298 461.449C319.391 457.906 335.068 461.533 348.924 470.137C353.51 473.389 356.367 476.868 359.824 481.172C355.789 496.587 345.471 513.889 335.249 525.942C313.352 551.948 282.039 568.213 248.172 571.174C210.43 574.175 176.47 562.063 147.825 537.531C119.235 513.142 101.607 478.316 98.8814 440.835C96.1604 403.19 108.657 366.028 133.57 337.675C160.722 306.177 191.459 292.179 232.279 289.075Z"/><path fill="white" transform="scale(1.48542 1.48542)" d="M830.325 289.798C832.795 289.435 838.713 289.533 841.452 289.504L841.45 366.856L838.352 367.075C788.216 370.821 764.957 404.84 761.705 453.299C760.419 472.468 763.223 495.284 759.476 513.746C756.863 526.442 750.978 538.235 742.403 547.956C729.917 562.344 716.192 567.995 697.487 569.264L684.075 569.257L683.894 493.381C683.763 436.875 682.944 394.514 721.489 347.656C750.237 312.708 785.238 294.296 830.325 289.798Z"/><path fill="white" transform="scale(1.48542 1.48542)" d="M934.958 291.291L948.591 290.945C949.168 330.25 948.614 369.673 948.829 408.987C948.876 417.65 949.231 426.872 948.824 435.484C946.187 491.184 964.992 560.751 888.908 569.196L873.151 569.075C871.866 526.837 872.959 479.137 872.873 436.461L872.768 387.666C872.735 364.233 871.055 341.123 885.411 320.983C897.971 303.362 913.972 294.998 934.958 291.291Z"/><path fill="#A8DADC" transform="scale(1.48542 1.48542)" d="M1112.02 200.509C1112.61 186.842 1116.69 173.398 1127.23 164.035C1157.88 136.815 1207.32 160.097 1204.69 201.334C1204.26 208.042 1203.03 212.098 1200.89 218.463C1227.67 236.592 1258.44 256.391 1284.16 275.31C1281.45 278.354 1278.18 281.762 1276.12 285.206C1252.69 270.803 1215.99 245.677 1194.14 229.732C1189.03 234.405 1184.42 238.033 1178.14 241.107C1167.3 246.464 1154.77 247.246 1143.35 243.277C1127.15 237.684 1120.58 227.591 1113.51 213.101C1112.73 208.561 1112.4 205.077 1112.02 200.509Z"/><path fill="#457B9D" transform="scale(1.48542 1.48542)" d="M1302.86 321.815C1307.9 320.177 1309.4 319.39 1313.99 316.818C1324.94 338.935 1335.86 364.865 1346.7 387.712C1357.42 386.453 1367.3 387.705 1376.02 394.74C1383.22 400.623 1387.76 409.139 1388.64 418.39C1389.66 428.239 1386.71 438.088 1380.43 445.746C1374.72 452.658 1366.48 456.998 1357.55 457.799C1353.36 458.182 1347.71 457.774 1343.71 456.439C1340.7 454.643 1335.2 452.041 1331.92 450.364C1330.41 449.135 1329.12 447.735 1327.82 446.285C1321.4 439.148 1318.12 429.732 1318.72 420.152C1319.56 407.441 1325.82 399.393 1334.85 391.435C1323.74 369.208 1313.49 344.508 1302.86 321.815Z"/><path fill="#457B9D" transform="scale(1.48542 1.48542)" d="M1012.53 221.608C1023.87 218.586 1038.78 215.763 1050.47 213.312L1112.02 200.509C1112.4 205.077 1112.73 208.561 1113.51 213.101C1082.26 219.445 1046.64 228.569 1015.95 233.456C1015.8 234.24 1015.64 235.022 1015.47 235.803C1013.19 246.45 1008.62 257.323 998.935 263.073C982.937 272.573 963.207 267.057 953.655 251.681C948.945 244.184 947.439 235.111 949.475 226.494C951.484 217.747 956.896 210.161 964.514 205.415C971.651 201.02 980.256 199.683 988.389 201.706C1000.25 204.541 1006.61 211.753 1012.53 221.608Z"/><path fill="#1D3557" transform="scale(1.48542 1.48542)" d="M1331.92 450.364C1335.2 452.041 1340.7 454.643 1343.71 456.439C1326.34 491.786 1307.27 525.331 1290.35 561.033C1290.58 561.23 1290.8 561.43 1291.02 561.635C1297.92 568.122 1302.4 576.41 1302.56 586.018C1302.7 594.378 1299.46 602.441 1293.58 608.387C1272.85 629.371 1238.66 613.48 1240.19 585.064C1241.42 562.266 1259.09 554.791 1278.78 555.787C1282.95 545.554 1290.42 531.404 1295.46 521.365L1331.92 450.364Z"/><path fill="#0EA391" transform="scale(1.48542 1.48542)" d="M1392.69 261.338C1393.28 254.321 1395.3 246.347 1401.22 242.131C1427.63 223.321 1452.04 260.666 1427.33 279.39C1423.27 282.502 1418.11 283.792 1413.07 282.951C1406.15 281.813 1400.86 277.384 1395.84 272.861C1374.63 279.764 1344.58 288.433 1324.28 296.134C1323.86 291.062 1323.8 288.751 1322.14 283.906C1345.44 276.403 1369.31 268.421 1392.69 261.338Z"/><path fill="#1D3557" transform="scale(1.48542 1.48542)" d="M1284.16 275.31C1301.09 266.699 1309.81 270.609 1322.14 283.906C1323.8 288.751 1323.86 291.062 1324.28 296.134C1322.98 305.537 1321.57 310.149 1313.99 316.818C1309.4 319.39 1307.9 320.177 1302.86 321.815C1281.19 320.93 1269.39 306.487 1276.12 285.206C1278.18 281.762 1281.45 278.354 1284.16 275.31Z"/></svg>